<svg width="287" height="393" viewBox="0 0 287 393" fill="none" xmlns="http://www.w3.org/2000/svg">
<path d="M30.2702 195.963C35.7332 215.429 57.7416 258.466 102.07 274.881C95.8269 255.02 72.726 211.431 30.2702 195.963Z" fill="url(#paint0_linear_2300_83)"/>
<path d="M25.5876 167.553C25.5876 171.025 26.6281 178.996 27.1484 182.547C86.7739 188.545 117.549 251.074 125.484 281.589C150.77 285.692 172.7 279.879 180.504 276.459C154.282 154.61 66.3004 153.084 25.5876 167.553Z" fill="url(#paint1_linear_2300_83)"/>
<path d="M25.9778 144.666C24.7291 152.874 24.9372 162.291 25.1973 165.974C45.1766 157.135 69.162 153.61 78.6573 152.953C164.896 152.953 194.942 235.422 198.454 268.567C221.555 257.203 239.297 234.369 244.89 224.373C243.98 217.665 235.525 196.357 208.99 164.79C175.822 125.332 116.508 129.277 78.6573 146.245C48.3763 159.819 30.9205 150.848 25.9778 144.666Z" fill="url(#paint2_linear_2300_83)"/>
<path d="M141.092 126.121C209.146 120.439 246.191 171.63 256.207 197.936C266.509 162.896 260.759 130.987 256.597 119.413C237.867 105.602 198.454 97.6967 157.091 115.861C133.256 126.329 115.468 125.989 108.704 123.753C77.4866 111.916 83.7301 68.7739 91.1443 47.9923C55.5563 65.9855 38.3347 98.105 34.1723 111.916C35.343 119.413 38.0745 129.672 45.4887 137.169C52.9028 144.666 73.9746 149.007 94.266 138.748C110.499 130.54 132.247 126.91 141.092 126.121Z" fill="url(#paint3_linear_2300_83)"/>
<path d="M169.968 108.759C206.259 92.9753 238.777 96.9212 248.402 99.6833C244.968 93.0542 239.948 86.3989 237.867 83.8998C219.916 86.6619 197.674 105.602 172.7 92.9753C152.721 82.8739 153.969 50.6228 157.091 35.76C140.546 33.5503 123.402 36.6807 116.899 38.5221C97.3878 62.9866 100.683 100.841 118.85 111.521C135.629 121.386 158.392 114.415 169.968 108.759Z" fill="url(#paint4_linear_2300_83)"/>
<path d="M175.041 38.9167C205.322 47.4399 229.022 71.1415 237.086 81.9269C221.477 89.8186 205.088 89.161 198.845 87.8457C173.558 80.3983 172.44 52.1233 175.041 38.9167Z" fill="url(#paint5_linear_2300_83)"/>
<path fill-rule="evenodd" clip-rule="evenodd" d="M278.523 393H256.553L247.384 379.69H187.527L178.531 392.825H157.426L205.346 324.521H230.258L278.523 393ZM84.7676 377.237V324.871H103.105V392.825H75.0801L18.6836 339.407L18.5107 392.825H0V324.696H29.0635L84.7676 377.237ZM144.798 392.825H125.595V324.871H144.798V392.825ZM196.869 366.028H237.004L217.109 337.131L196.869 366.028Z" fill="#2669F6"/>
<defs>
<linearGradient id="paint0_linear_2300_83" x1="25" y1="159" x2="262" y2="159" gradientUnits="userSpaceOnUse">
<stop stop-color="#ACC0FB"/>
<stop offset="1" stop-color="#93F0C5"/>
</linearGradient>
<linearGradient id="paint1_linear_2300_83" x1="25" y1="159" x2="262" y2="159" gradientUnits="userSpaceOnUse">
<stop stop-color="#ACC0FB"/>
<stop offset="1" stop-color="#93F0C5"/>
</linearGradient>
<linearGradient id="paint2_linear_2300_83" x1="25" y1="159" x2="262" y2="159" gradientUnits="userSpaceOnUse">
<stop stop-color="#ACC0FB"/>
<stop offset="1" stop-color="#93F0C5"/>
</linearGradient>
<linearGradient id="paint3_linear_2300_83" x1="25" y1="159" x2="262" y2="159" gradientUnits="userSpaceOnUse">
<stop stop-color="#ACC0FB"/>
<stop offset="1" stop-color="#93F0C5"/>
</linearGradient>
<linearGradient id="paint4_linear_2300_83" x1="25" y1="159" x2="262" y2="159" gradientUnits="userSpaceOnUse">
<stop stop-color="#ACC0FB"/>
<stop offset="1" stop-color="#93F0C5"/>
</linearGradient>
<linearGradient id="paint5_linear_2300_83" x1="25" y1="159" x2="262" y2="159" gradientUnits="userSpaceOnUse">
<stop stop-color="#ACC0FB"/>
<stop offset="1" stop-color="#93F0C5"/>
</linearGradient>
</defs>
</svg>
