<svg width="24" height="24" viewBox="0 0 24 24" fill="none" xmlns="http://www.w3.org/2000/svg">
<path d="M7.20923 13.1286L7.64939 18.2733M11.6108 13.1286V18.2733M16.0124 13.1286L15.5812 18.1681L15.5722 18.2733" stroke="#828A89" stroke-width="1.5" stroke-linecap="round"/>
<path d="M20.6479 10.8773L19.0601 20.1576C19.0051 20.2512 18.9315 20.3653 18.8511 20.4564C18.8232 20.488 18.7977 20.5086 18.7798 20.5247H4.92627C4.92503 20.5238 4.92366 20.5229 4.92236 20.5218C4.86674 20.4765 4.76618 20.3713 4.64795 20.1624L3.06006 10.8773H20.6479Z" stroke="#828A89" stroke-width="1.5" stroke-linecap="round"/>
<path d="M0.800049 10.717H2.12052H3.44099M22.8079 10.717H21.4874H20.1669M3.44099 10.717L6.96224 3.42872C7.10895 3.28582 7.40239 3 7.84255 3C8.19467 3 8.86958 3 9.16302 3M3.44099 10.717H20.1669M20.1669 10.717L16.6457 3.42872L16.2055 3H14.4449" stroke="#828A89" stroke-width="1.5" stroke-linecap="round"/>
</svg>
