<svg width="24" height="24" viewBox="0 0 24 24" fill="none" xmlns="http://www.w3.org/2000/svg">
<path d="M1 10.717H2.32047H3.64094M23.0078 10.717H21.6873H20.3669M3.64094 10.717L7.16219 3.42872C7.30891 3.28582 7.60234 3 8.0425 3C8.39462 3 9.06953 3 9.36297 3M3.64094 10.717H20.3669M20.3669 10.717L16.8456 3.42872L16.4055 3H14.6448" stroke="#187CEA" stroke-width="1.5" stroke-linecap="round"/>
<path d="M19.5337 20.4177C19.4854 20.5117 19.4103 20.6354 19.3208 20.7605C19.3139 20.7701 19.3074 20.7801 19.3003 20.7898C19.2832 20.813 19.2646 20.8353 19.2466 20.8581C19.2304 20.8787 19.2147 20.8997 19.1978 20.9197C19.1801 20.9405 19.1614 20.9603 19.1431 20.9802C19.1229 21.0021 19.1024 21.0233 19.0815 21.0437C19.0628 21.062 19.0441 21.0797 19.0249 21.0964C19.0006 21.1177 18.9756 21.1368 18.9507 21.155C18.9327 21.1682 18.9151 21.1809 18.897 21.1921C18.8898 21.1966 18.8827 21.2007 18.8755 21.2048C18.8438 21.223 18.8126 21.2385 18.7808 21.2497C18.7651 21.2553 18.7496 21.2598 18.7339 21.2634C18.7267 21.2651 18.7196 21.2671 18.7124 21.2683C18.6928 21.2717 18.6733 21.2751 18.6538 21.2751H4.56787C4.54957 21.2751 4.52747 21.2724 4.50244 21.2663C4.47858 21.2606 4.45242 21.2504 4.42334 21.238C4.41756 21.2356 4.41173 21.2329 4.40576 21.2302C4.38404 21.2202 4.36137 21.2081 4.3374 21.1941C4.32762 21.1883 4.31725 21.183 4.30713 21.1765C4.24212 21.1349 4.17059 21.078 4.09521 21.0017C4.08413 20.9905 4.07325 20.9786 4.06201 20.9665C4.03299 20.9354 4.00391 20.9011 3.97412 20.864C3.96316 20.8504 3.95195 20.8365 3.94092 20.822C3.90158 20.7703 3.8606 20.7141 3.8208 20.6511C3.77644 20.5809 3.73195 20.5033 3.68799 20.4177L1.92725 10.1277H21.2944L19.5337 20.4177ZM7.146 12.3816C6.73344 12.4169 6.42735 12.7796 6.4624 13.1921L6.90283 18.3376C6.93838 18.75 7.3009 19.0555 7.71338 19.0202C8.12586 18.9849 8.43205 18.6222 8.39697 18.2097L7.95654 13.0652C7.92125 12.6527 7.55844 12.3466 7.146 12.3816ZM11.6108 12.3786C11.1967 12.3788 10.8608 12.7145 10.8608 13.1286V18.2732C10.8609 18.6873 11.1967 19.0231 11.6108 19.0232C12.0249 19.0231 12.3608 18.6873 12.3608 18.2732V13.1286C12.3608 12.7145 12.025 12.3788 11.6108 12.3786ZM16.0767 12.3816C15.664 12.3463 15.3004 12.6525 15.2651 13.0652L14.8345 18.1042L14.8247 18.2097C14.7896 18.6222 15.0958 18.9848 15.5083 19.0202C15.9208 19.0554 16.2843 18.7501 16.3198 18.3376L16.3286 18.2322L16.7603 13.1921C16.7953 12.7797 16.489 12.417 16.0767 12.3816Z" fill="#187CEA"/>
</svg>
