<svg width="24" height="24" viewBox="0 0 24 24" fill="none" xmlns="http://www.w3.org/2000/svg">
<path d="M5 14H7C8.07638 14 8.79788 14.294 9.25195 14.748C9.70603 15.2021 10 15.9236 10 17V19C10 20.0764 9.70603 20.7979 9.25195 21.252C8.79788 21.706 8.07638 22 7 22H5C3.92362 22 3.20212 21.706 2.74805 21.252C2.29397 20.7979 2 20.0764 2 19V17C2 15.9236 2.29397 15.2021 2.74805 14.748C3.20212 14.294 3.92362 14 5 14Z" stroke="#828A89" stroke-width="1.5"/>
<path d="M5 2H7C8.07638 2 8.79788 2.29397 9.25195 2.74805C9.70603 3.20212 10 3.92362 10 5V7C10 8.07638 9.70603 8.79788 9.25195 9.25195C8.79788 9.70603 8.07638 10 7 10H5C3.92362 10 3.20212 9.70603 2.74805 9.25195C2.29397 8.79788 2 8.07638 2 7V5C2 3.92362 2.29397 3.20212 2.74805 2.74805C3.20212 2.29397 3.92362 2 5 2Z" stroke="#828A89" stroke-width="1.5"/>
<path d="M17 14H19C20.0764 14 20.7979 14.294 21.252 14.748C21.706 15.2021 22 15.9236 22 17V19C22 20.0764 21.706 20.7979 21.252 21.252C20.7979 21.706 20.0764 22 19 22H17C15.9236 22 15.2021 21.706 14.748 21.252C14.294 20.7979 14 20.0764 14 19V17C14 15.9236 14.294 15.2021 14.748 14.748C15.2021 14.294 15.9236 14 17 14Z" stroke="#828A89" stroke-width="1.5"/>
<path d="M22.2067 6.12774C19.4615 6.8343 18.8032 7.56174 18.1822 10.6441C18.1537 10.7853 17.952 10.7853 17.9235 10.6441C17.3025 7.56174 16.6443 6.83425 13.899 6.12774C13.7671 6.09378 13.7671 5.90622 13.899 5.87226C16.6442 5.1657 17.3025 4.43826 17.9235 1.35592C17.952 1.21469 18.1537 1.21469 18.1822 1.35592C18.8032 4.43826 19.4614 5.16575 22.2067 5.87226C22.3387 5.90622 22.3387 6.09378 22.2067 6.12774Z" stroke="#828A89" stroke-width="1.5"/>
</svg>
