<svg width="24" height="24" viewBox="0 0 24 24" fill="none" xmlns="http://www.w3.org/2000/svg">
<g clip-path="url(#clip0_2258_234)">
<path d="M20.7659 0H3.23407C1.44797 0 0 1.44791 0 3.23405V20.7659C0 22.552 1.44792 23.9999 3.23407 23.9999H11.8807L11.8954 15.4236H9.66728C9.37772 15.4236 9.14271 15.1895 9.14159 14.8999L9.13091 12.1354C9.12979 11.8443 9.36551 11.6077 9.65665 11.6077H11.8807V8.93651C11.8807 5.83661 13.774 4.14869 16.5393 4.14869H18.8084C19.0988 4.14869 19.3343 4.38407 19.3343 4.67444V7.00547C19.3343 7.29573 19.0989 7.53104 18.8088 7.53121L17.4161 7.53187C15.9123 7.53187 15.6211 8.24648 15.6211 9.29523V11.6078H18.9256C19.2405 11.6078 19.4848 11.8827 19.4477 12.1954L19.12 14.9599C19.0887 15.2244 18.8644 15.4237 18.598 15.4237H15.6359L15.6211 24H20.766C22.5521 24 24 22.5521 24 20.766V3.23405C24 1.44791 22.552 0 20.7659 0Z" fill="#2669F6"/>
</g>
<defs>
<clipPath id="clip0_2258_234">
<rect width="24" height="24" fill="white"/>
</clipPath>
</defs>
</svg>
