<svg width="24" height="24" viewBox="0 0 24 24" fill="none" xmlns="http://www.w3.org/2000/svg">
<path d="M23.522 12.2737C23.523 11.456 23.4538 10.6397 23.3153 9.8338H11.999V14.4553H18.4805C18.3478 15.1934 18.0671 15.8971 17.6552 16.5238C17.2434 17.1505 16.7088 17.6873 16.0839 18.1019V21.1018H19.9521C22.217 19.0135 23.522 15.9253 23.522 12.2737Z" fill="#4285F4"/>
<path d="M11.9991 24C15.2374 24 17.9639 22.9367 19.9522 21.1034L16.084 18.1035C15.0074 18.8335 13.6208 19.2502 11.9991 19.2502C8.86925 19.2502 6.21267 17.1402 5.2627 14.297H1.27783V17.3885C2.27658 19.3759 3.80804 21.0466 5.70125 22.2141C7.59446 23.3816 9.77491 23.9999 11.9991 24Z" fill="#34A853"/>
<path d="M5.26261 14.297C4.7604 12.8071 4.7604 11.1937 5.26261 9.7038V6.61224H1.27774C0.437565 8.28411 0 10.1293 0 12.0004C0 13.8715 0.437565 15.7167 1.27774 17.3886L5.26261 14.297Z" fill="#FBBC04"/>
<path d="M11.9991 4.75063C13.7104 4.72267 15.3639 5.36924 16.6023 6.55057L20.0272 3.12568C17.8555 1.08588 14.9784 -0.03401 11.9991 0.000787286C9.77491 0.000888658 7.59446 0.619191 5.70125 1.78667C3.80804 2.95414 2.27658 4.62484 1.27783 6.61224L5.2627 9.7038C6.21267 6.86056 8.86925 4.75063 11.9991 4.75063Z" fill="#EA4335"/>
</svg>
