<svg width="24" height="24" viewBox="0 0 24 24" fill="none" xmlns="http://www.w3.org/2000/svg">
<path d="M7.81965 22H16.1804C18.4891 22 20.3607 20.214 20.3607 18.0108V13.133C20.3607 12.4248 20.6555 11.7456 21.1803 11.2448C22.3962 10.0845 22.2381 8.16205 20.8475 7.19691L14.4588 2.763C12.9929 1.74567 11.0071 1.74567 9.54124 2.763L3.15251 7.19692C1.76187 8.16205 1.60381 10.0845 2.81969 11.2448C3.34448 11.7456 3.6393 12.4248 3.6393 13.133V18.0108C3.6393 20.214 5.5109 22 7.81965 22Z" fill="#187CEA" stroke="#187CEA" stroke-width="1.5" stroke-linecap="round"/>
<path d="M6.26684 14.7885C6.54346 15.7304 7.6578 17.8129 9.9023 18.6071C9.58617 17.6461 8.41651 15.537 6.26684 14.7885Z" fill="white" fill-opacity="0.9"/>
<path d="M6.02975 13.4138C6.02975 13.5819 6.08244 13.9675 6.10878 14.1394C9.12779 14.4296 10.686 17.4552 11.0878 18.9317C12.3681 19.1303 13.4785 18.849 13.8736 18.6835C12.5459 12.7876 8.09116 12.7138 6.02975 13.4138Z" fill="white" fill-opacity="0.9"/>
<path d="M6.04951 12.3064C5.98628 12.7036 5.99682 13.1593 6.00999 13.3375C7.0216 12.9098 8.23605 12.7392 8.71682 12.7074C13.0833 12.7074 14.6047 16.6978 14.7825 18.3016C15.9522 17.7518 16.8505 16.6469 17.1337 16.1632C17.0876 15.8386 16.6595 14.8076 15.316 13.2802C13.6365 11.3709 10.6333 11.5618 8.71682 12.3828C7.18361 13.0396 6.29977 12.6056 6.04951 12.3064Z" fill="white" fill-opacity="0.9"/>
<path d="M11.8781 11.4091C15.3239 11.1341 17.1996 13.6111 17.7067 14.884C18.2283 13.1885 17.9372 11.6445 17.7264 11.0845C16.7781 10.4162 14.7825 10.0337 12.6882 10.9127C11.4813 11.4191 10.5807 11.4027 10.2382 11.2945C8.65755 10.7217 8.97368 8.63422 9.34908 7.62866C7.54716 8.4993 6.67517 10.0535 6.46442 10.7217C6.5237 11.0845 6.662 11.5809 7.0374 11.9437C7.4128 12.3064 8.47973 12.5165 9.50714 12.02C10.3291 11.6229 11.4302 11.4473 11.8781 11.4091Z" fill="white" fill-opacity="0.9"/>
<path d="M13.3402 10.569C15.1777 9.80526 16.8242 9.99619 17.3115 10.1298C17.1376 9.80908 16.8834 9.48704 16.7781 9.36612C15.8692 9.49977 14.743 10.4162 13.4785 9.80526C12.4669 9.31648 12.5301 7.75594 12.6882 7.03677C11.8504 6.92985 10.9824 7.08133 10.6531 7.17043C9.6652 8.35419 9.83206 10.1858 10.7519 10.7026C11.6015 11.18 12.754 10.8426 13.3402 10.569Z" fill="white" fill-opacity="0.9"/>
<path d="M13.597 7.18952C15.1302 7.60193 16.3302 8.74878 16.7385 9.27066C15.9482 9.65251 15.1184 9.62069 14.8023 9.55705C13.5219 9.19669 13.4653 7.82855 13.597 7.18952Z" fill="white" fill-opacity="0.9"/>
</svg>
