<svg width="24" height="24" viewBox="0 0 24 24" fill="none" xmlns="http://www.w3.org/2000/svg">
<path d="M7.81965 22H16.1804C18.4891 22 20.3607 20.214 20.3607 18.0108V13.133C20.3607 12.4248 20.6555 11.7456 21.1803 11.2448C22.3962 10.0845 22.2381 8.16205 20.8475 7.19691L14.4588 2.763C12.9929 1.74567 11.0071 1.74567 9.54124 2.763L3.15251 7.19692C1.76187 8.16205 1.60381 10.0845 2.81969 11.2448C3.34447 11.7456 3.6393 12.4248 3.6393 13.133V18.0108C3.6393 20.214 5.5109 22 7.81965 22Z" stroke="#828A89" stroke-width="1.5" stroke-linecap="round"/>
<path d="M6.74461 14.7885C6.99817 15.7304 8.01965 17.8129 10.0771 18.6071C9.78733 17.6461 8.71513 15.537 6.74461 14.7885Z" fill="#828A89"/>
<path d="M6.52727 13.4138C6.52727 13.5819 6.57557 13.9675 6.59972 14.1394C9.36714 14.4296 10.7955 17.4552 11.1638 18.9317C12.3374 19.1303 13.3553 18.849 13.7175 18.6835C12.5004 12.7876 8.4169 12.7138 6.52727 13.4138Z" fill="#828A89"/>
<path d="M6.54538 12.3064C6.48743 12.7036 6.49709 13.1593 6.50916 13.3375C7.43647 12.9098 8.54971 12.7392 8.99042 12.7074C12.993 12.7074 14.3876 16.6978 14.5506 18.3016C15.6228 17.7518 16.4463 16.6469 16.7059 16.1632C16.6636 15.8386 16.2712 14.8076 15.0396 13.2802C13.5002 11.3709 10.7472 11.5618 8.99042 12.3828C7.58498 13.0396 6.77479 12.6056 6.54538 12.3064Z" fill="#828A89"/>
<path d="M11.8882 11.4091C15.0469 11.1341 16.7663 13.6111 17.2311 14.884C17.7093 13.1885 17.4424 11.6445 17.2492 11.0845C16.3799 10.4162 14.5506 10.0337 12.6308 10.9127C11.5246 11.4191 10.6989 11.4027 10.385 11.2945C8.93609 10.7217 9.22587 8.63422 9.56999 7.62866C7.91823 8.4993 7.11891 10.0535 6.92572 10.7217C6.98005 11.0845 7.10683 11.5809 7.45095 11.9437C7.79507 12.3064 8.77308 12.5165 9.71488 12.02C10.4683 11.6229 11.4777 11.4473 11.8882 11.4091Z" fill="#828A89"/>
<path d="M13.2285 10.569C14.9129 9.80526 16.4221 9.99619 16.8689 10.1298C16.7095 9.80908 16.4765 9.48704 16.3799 9.36612C15.5468 9.49977 14.5144 10.4162 13.3553 9.80526C12.428 9.31648 12.4859 7.75594 12.6308 7.03677C11.8629 6.92985 11.0672 7.08133 10.7653 7.17043C9.85977 8.35419 10.0127 10.1858 10.8559 10.7026C11.6347 11.18 12.6912 10.8426 13.2285 10.569Z" fill="#828A89"/>
<path d="M13.4639 7.18952C14.8694 7.60193 15.9694 8.74878 16.3437 9.27066C15.6192 9.65251 14.8585 9.62069 14.5687 9.55705C13.3951 9.19669 13.3432 7.82855 13.4639 7.18952Z" fill="#828A89"/>
</svg>
