<svg width="14" height="15" viewBox="0 0 14 15" fill="none" xmlns="http://www.w3.org/2000/svg">
<path d="M0.500244 6.62159L0.995104 5.29953M4.60864 6.62159L4.06879 5.29953M0.995104 5.29953L2.46513 1.37222L4.06879 5.29953M0.995104 5.29953H4.06879M12.885 10.1017C12.245 10.0056 11.6215 10.1718 11.0987 10.4857M13.5002 14.2429C9.01475 15.0789 9.18965 11.6318 11.0987 10.4857M12.5476 8.68246C10.7613 8.27417 9.61017 9.98508 11.0987 10.4857" stroke="#187CEA" stroke-linecap="round"/>
<path d="M9.50024 2.37222H10.5002C11.6048 2.37222 12.5002 3.26765 12.5002 4.37222V5.37222M5.50024 12.3722H4.50024C3.39567 12.3722 2.50024 11.4768 2.50024 10.3722V9.65" stroke="#187CEA" stroke-linecap="round" stroke-linejoin="round"/>
</svg>
