<svg width="42" height="42" viewBox="0 0 42 42" fill="none" xmlns="http://www.w3.org/2000/svg">
<path d="M20.9445 0C32.5038 0 41.889 9.38524 41.889 20.9445C41.889 32.5038 32.5038 41.889 20.9445 41.889C9.38524 41.889 0 32.5038 0 20.9445C0 9.38524 9.38524 0 20.9445 0Z" fill="#187CEA"/>
<path d="M11.8997 20.716V25.206C11.8997 29.696 13.6997 31.496 18.1897 31.496H23.5797C28.0697 31.496 29.8697 29.696 29.8697 25.206V20.716" stroke="white" stroke-width="1.5" stroke-linecap="round" stroke-linejoin="round"/>
<path d="M20.8896 21.496C22.7196 21.496 24.0696 20.006 23.8896 18.176L23.2296 11.496H18.5596L17.8896 18.176C17.7096 20.006 19.0596 21.496 20.8896 21.496Z" stroke="white" stroke-width="1.5" stroke-linecap="round" stroke-linejoin="round"/>
<path d="M27.1997 21.496C29.2197 21.496 30.6997 19.856 30.4997 17.846L30.2197 15.096C29.8597 12.496 28.8597 11.496 26.2397 11.496H23.1897L23.8897 18.506C24.0597 20.156 25.5497 21.496 27.1997 21.496Z" stroke="white" stroke-width="1.5" stroke-linecap="round" stroke-linejoin="round"/>
<path d="M14.5295 21.496C16.1795 21.496 17.6695 20.156 17.8295 18.506L18.0495 16.296L18.5295 11.496H15.4795C12.8595 11.496 11.8595 12.496 11.4995 15.096L11.2295 17.846C11.0295 19.856 12.5095 21.496 14.5295 21.496Z" stroke="white" stroke-width="1.5" stroke-linecap="round" stroke-linejoin="round"/>
<path d="M20.8896 26.496C19.2196 26.496 18.3896 27.326 18.3896 28.996V31.496H23.3896V28.996C23.3896 27.326 22.5596 26.496 20.8896 26.496Z" stroke="white" stroke-width="1.5" stroke-linecap="round" stroke-linejoin="round"/>
</svg>
