<svg width="24" height="24" viewBox="0 0 24 24" fill="none" xmlns="http://www.w3.org/2000/svg">
<path d="M9.2373 14.7246H15.334L15.75 14.7363C16.7719 14.7925 18.1175 15.0486 19.2744 15.667C20.6186 16.3855 21.7499 17.623 21.75 19.6152V22.25H2.25V19.6152C2.25004 18.7564 2.62472 17.5245 3.69629 16.5117C4.77193 15.4953 6.52194 14.7246 9.2373 14.7246ZM12 1.75C14.6233 1.75 16.7762 3.92497 16.7764 6.64062C16.7764 9.35646 14.6234 11.5322 12 11.5322C9.37657 11.5322 7.22363 9.35646 7.22363 6.64062C7.22384 3.92497 9.37669 1.75 12 1.75Z" fill="#187CEA" stroke="#187CEA" stroke-width="1.5"/>
</svg>
